<?xml version="1.0" standalone="no"?><!DOCTYPE svg PUBLIC "-//W3C//DTD SVG 1.1//EN" "http://www.w3.org/Graphics/SVG/1.1/DTD/svg11.dtd"><svg t="1783855594977" class="icon" viewBox="0 0 1147 1024" version="1.1" xmlns="http://www.w3.org/2000/svg" p-id="2318" xmlns:xlink="http://www.w3.org/1999/xlink" width="224.0234375" height="200"><path d="M1048.641507 785.390629c0.306106 13.124281 10.13975 29.194828-33.671624 40.520738-41.706898 7.15522-141.267768 13.698229-173.447127 13.698229-33.059413 1.760108-107.404828 3.826321-180.602346 4.362006 6.466482-9.527539 4.0559-17.907182-1.683582-25.138929 3.826321 4.362006 162.312533 5.01248 194.491892 3.826321s41.439055-4.438532 81.232793-19.131604a342.226142 342.226142 0 0 1 113.450414-23.799716c0 1.989687 0.191316 3.864584 0.22958 5.662955z" fill="#9ABBD2" p-id="2319"></path><path d="M1047.149241 700.599357c4.935954 14.31044 8.953591 23.225768 0.459159 42.472162 0 0-16.223601 10.13975-75.531575 16.070548-59.61408 6.581272-100.173081 11.478963-121.02653 11.019804-23.837979-5.050744-128.832225-24.411927-128.832225-24.411927 15.802705-1.91316 40.405949-7.231747 76.832524-20.547343 11.287647-2.716688 21.58045-5.203796 31.069726-7.652642 55.175547-13.659966 82.342426-22.116135 110.198042-30.87841 34.857783-10.216277 69.830356-24.985875 106.830879 13.927808z" fill="#454243" p-id="2320"></path><path d="M494.59024 731.171661c17.486287-7.920484 36.273522-12.971228 54.831178-10.178013 47.408116 7.15522 148.576041 24.794559 148.576041 24.794559a41.630371 41.630371 0 0 0 11.708542 0.918317c2.831477 0 6.19864-0.267842 10.216277-0.688738l2.295792-0.267842s104.994246 19.361184 128.832225 24.411927c20.853449 0.573948 61.41245-4.438532 121.02653-11.019804 59.307974-5.930797 75.531575-16.070548 75.531575-16.070548 0.382632 13.851282 0.650475 26.439877 0.918317 36.656155a342.226142 342.226142 0 0 0-113.565204 23.799716c-39.793737 14.769599-49.321276 18.021971-81.232793 19.131604s-190.550781 0.573948-194.491892-3.826321c-7.423063-9.374486-20.470817-16.835812-26.784246-22.575293a70.136462 70.136462 0 0 0-7.652642-5.854271l-44.500112-43.467006 6.696062 28.314775c-0.459159 0-0.95658 0-1.454002 0.229579l-73.656678-42.08953 20.432554 36.923997a14.578283 14.578283 0 0 1-4.094163 2.02795l-45.915851-24.105821 14.501756 29.46267-1.607055 0.956581-51.349226-11.172857c-1.186159-1.377476-2.410582-2.793214-3.826321-4.17069 14.731335-9.144907 33.709887-22.690083 54.563336-32.141096z m390.284732 63.976086c12.129437-0.688738 10.25454-3.826321 7.652642-9.604066s-10.484119-5.816008-10.522383-5.816007-105.721247 3.328899-123.398849 4.247216-10.25454 12.28249-10.25454 12.28249c2.908004 5.356849 13.621702 3.826321 13.621703 3.826321s110.848517-4.208953 122.93969-4.935954z" fill="#1E1D20" p-id="2321"></path><path d="M810.376504 692.870189c-19.667289-24.985875-47.408116-61.488977-51.119647-72.700097-4.362006-11.249383-7.078694-20.929975-5.930798-29.003513s6.772588-15.305284 19.361184-20.202974c26.516404-5.662955 42.08953 4.17069 84.906061 19.973395a417.795979 417.795979 0 0 0 43.390479 14.195651c27.54951 6.772588 51.693595 5.701218 62.751663-19.590763 15.305284-38.263209 17.868919-61.986399 28.888723-76.526418s15.611389-24.067558 46.413272 23.264031a173.714969 173.714969 0 0 1 3.826321 35.7761c7.15522 54.525073 14.31044 99.216501 4.438532 132.773336-37.07705-38.913684-71.973096-24.144085-106.830879-13.851282-27.855616 8.762275-55.022495 17.218444-110.198042 30.87841 0.038263-0.229579-8.724012-10.751962-19.896869-24.985876z" fill="#B90418" p-id="2322"></path><path d="M989.06569 411.329497c11.478963 15.840969 39.832001 69.945146 49.971751 120.720425-30.801883-47.33159-35.393468-37.842314-46.413272-23.264032s-13.392123 38.454525-28.888723 76.526418c-11.058067 25.291981-35.202152 26.363351-62.751663 19.590764-0.727001-0.497422-48.556012-32.179359-63.631717-41.630372-2.678425-2.678425-77.482998-42.319109-97.456393-54.831178a41.01816 41.01816 0 0 0-23.991032-7.652642c6.466482-6.389956-8.264853-21.312607-8.264853-21.312608s-18.787236-21.886556-24.144085-30.380988a38.263209 38.263209 0 0 1-3.826321-21.121291l1.07137-0.229579s5.356849 1.568792 30.610567 2.716688a378.193558 378.193558 0 0 0 25.253718 31.337568c11.478963 12.091174 21.69524 24.373664 33.327255 21.044765s6.466482-31.758463 6.696062-33.097676-8.953591-64.129138-14.54002-74.8811-32.485464-34.972573-44.385322-12.359017c-7.15522-3.520215-13.430386-5.739481-16.721023-7.652641l-2.181003-1.30095c0-0.420895 8.073537-27.319931 35.890891-30.610567 0 0 19.131605-6.313429 45.686271 12.167701a131.089754 131.089754 0 0 1 26.133772 24.794559c14.31044 13.698229 70.021673 86.551379 118.99858 44.308796 42.08953-29.960093 45.227113-12.091174 63.55519 7.116957z" fill="#B90418" p-id="2323"></path><path d="M837.352066 563.349227c15.075704 9.451013 62.904716 41.13295 63.631717 41.630371a417.795979 417.795979 0 0 1-43.390479-14.195651c-42.893057-15.802705-58.389657-25.63635-84.906061-19.973395-12.588596 4.897691-18.136761 11.478963-19.361184 20.202975-6.275166-1.683581-65.58314-16.835812-96.882445-5.35685-37.574471 13.009491-140.387714 47.867274-136.790972 60.379344 4.897691 13.430386 42.08953 31.299305 74.192362 40.252896s73.92452 19.667289 128.373066 19.131605a437.501532 437.501532 0 0 0 88.005381-12.626859c11.172857 14.233914 19.743816 24.756296 19.743816 24.756296-9.489276 2.372319-19.782079 4.859428-31.069726 7.652642-36.426575 13.315597-61.221134 18.634183-76.832523 20.547343l-2.295793 0.267842c-4.017637 0.420895-7.384799 0.650475-10.216277 0.688738a41.630371 41.630371 0 0 1-11.708542-0.918317s-101.167925-17.639339-148.57604-24.794559c-18.557656-2.793214-37.344892 2.257529-54.831179 10.178013-61.948135-48.862118-91.487333-63.210821-91.487333-63.210821s-36.350049-14.463493-51.425753-32.179359c-14.884388-20.126448 16.147074-34.781257 16.147075-34.781257a61.488977 61.488977 0 0 0 6.657798 12.703386c8.34138 11.478963 15.305284 28.62088 25.942456 16.414916a21.810029 21.810029 0 0 0 3.826321-23.837979s37.421418 13.698229 44.576638 13.698229c8.34138 0.306106 13.162544 0 32.179359-12.167701 21.236081-12.052911 38.263209-20.853449 41.783424-21.044765 10.063224-5.548165 5.395112-12.856438-3.826321-18.48113a112.149466 112.149466 0 0 1-19.131604-16.453179c-4.132427-1.683581-7.231747 0.459159-9.833645 4.132426 0.229579-4.323743 0.535685-9.030117 0.918317-13.736492l25.712876-14.654809a27.128615 27.128615 0 0 0 8.417906 18.787236c12.320753 8.035274 16.912338 6.045587 18.787236-12.091174 0.497422-4.629848 0.994843-9.948434 1.492265-15.305284a405.590016 405.590016 0 0 1 52.34407 29.577461c12.1677 5.662955 25.291981-4.17069 54.218967-17.256708s56.017338-28.238248 56.017338-28.238248a17.218444 17.218444 0 0 1 5.662955-1.683581l1.951424-0.191316a41.01816 41.01816 0 0 1 23.991032 7.652642c20.50908 12.205964 95.313654 51.846648 97.992078 54.525073z" fill="#DE3844" p-id="2324"></path><path d="M759.256857 619.863986c3.826321 11.478963 31.452358 47.867274 51.119647 72.700097a437.501532 437.501532 0 0 1-88.005381 12.626859c-54.448546 0.459159-96.193707-10.25454-128.373066-19.131604s-69.294672-26.784246-74.192362-40.252896c-3.596742-12.512069 99.216501-47.369853 136.790972-60.379344 31.299305-11.478963 90.607279 3.826321 96.882445 5.356849-1.300949 8.303116 1.415739 17.983708 5.777745 29.080039z" fill="#CEB2B9" p-id="2325"></path><path d="M790.250056 281.081534c-0.573948 24.756296-3.826321 49.436066-10.024961 54.218967C753.785218 316.819371 734.653613 323.1328 734.653613 323.1328c-27.817353 3.252373-35.7761 30.151409-35.89089 30.610567-4.859428-2.831477-14.578283-8.264853-25.445034-14.272177-3.21411-5.471639 3.21411-16.032285 3.367163-16.300127 1.760108 0.612211 4.859428-1.607055 10.713698-9.259696 14.769599-19.131605 42.778268-65.277035 67.802407-71.207832-0.11479-0.038263 33.556834 8.609222 35.049099 38.377999z" fill="#C4C3C6" p-id="2326"></path><path d="M761.935281 374.979448c5.586429 10.751962 14.769599 73.541888 14.54002 74.881101s4.935954 29.730513-6.696062 33.097675-21.924819-8.953591-33.327255-21.044765a378.193558 378.193558 0 0 1-25.253718-31.337568h1.798371c26.784246 0 22.307451-17.180181 21.886556-18.098498-0.880054-3.826321-19.705553-16.644496-20.470817-17.180181a29.194828 29.194828 0 0 0 5.509902 0.841791c13.698229 0.650475 21.771766-6.772588 17.562813-19.896869a77.215156 77.215156 0 0 0-19.935132-13.698228c11.899858-22.383977 38.798894 1.874897 44.385322 12.435542z" fill="#534E51" p-id="2327"></path><path d="M714.412376 395.526792c-8.877064-2.219266-19.590763-8.22659-31.261042-14.769599-5.739481-3.21411-11.708542-6.543009-17.792392-9.642329-21.159555-10.751962-58.772289-38.913684-58.772289-38.913683 2.525372-8.532696 7.652642-13.009491 18.060234-19.5525 0 0 26.59293 14.578283 48.556013 26.784246 10.866751 6.007324 20.585606 11.478963 25.445034 14.272177l2.181003 1.300949c3.290636 2.02795 9.565802 4.247216 16.721022 7.652642a77.215156 77.215156 0 0 1 19.935132 13.698229c4.208953 13.124281-3.826321 20.547343-17.562813 19.896869a29.194828 29.194828 0 0 1-5.509902-0.841791z" fill="#B90418" p-id="2328"></path><path d="M711.198266 430.728944c-25.291981-1.147896-30.610567-2.716688-30.610567-2.716688l-1.07137 0.229579-54.716389-0.497421c-4.821164-8.724012-3.826321-21.121291-2.142739-21.771766 34.93431 22.957925 57.394814-19.131605 60.532396-25.215455 11.670279 6.543009 22.383977 12.550333 31.261042 14.769599 0.765264 0.535685 19.590763 13.23907 20.470817 17.180181 0.420895 0.918317 4.935954 18.289814-21.886556 18.098497z" fill="#B90418" p-id="2329"></path><path d="M707.639788 479.744115s14.731335 14.922652 8.264853 21.312607l-1.951424 0.191316a223.418878 223.418878 0 0 0-49.742171-22.690083l-30.113146-31.949779c-3.137583-8.724012-6.275166-15.534863-8.456169-16.912339q-0.573948-0.841791-1.033107-1.721844l54.716389 0.497422a38.263209 38.263209 0 0 0 3.826321 21.121291c5.586429 8.264853 24.488454 30.151409 24.488454 30.151409z" fill="#534E51" p-id="2330"></path><path d="M713.953217 501.248038a17.218444 17.218444 0 0 0-5.662955 1.683581s-27.128615 15.113968-56.017338 28.238249-42.08953 22.957925-54.218967 17.256707a405.590016 405.590016 0 0 0-52.34407-29.577461l23.646663-12.473806c1.224423 6.887378 3.175846 12.435543 6.160377 14.731336 10.713699 10.063224 15.611389 6.772588 21.006502 1.109633a91.181227 91.181227 0 0 0 0.727001-29.424408h0.803527l16.108811-7.997011c2.946267 7.384799 6.543009 13.23907 10.751962 14.693073 12.741649 6.504746 21.69524 4.706375 20.126448-10.943278a115.669681 115.669681 0 0 0-2.181003-12.359017s5.816008-2.219266 21.503923 2.25753a223.418878 223.418878 0 0 1 49.589119 22.804872z" fill="#534E51" p-id="2331"></path><path d="M676.570062 323.1328c0 0.267842-6.581272 10.828488-3.367162 16.300127-21.963082-12.205964-48.556012-26.784246-48.556013-26.784246l2.295793-1.454002c6.696062-7.652642 7.652642-8.494432 17.639339-11.172857 9.604065-6.045587 24.144085 0.229579 27.511248 9.18317 2.02795 5.395112 1.760108 12.971228 4.476795 13.927808z" fill="#B90418" p-id="2332"></path><path d="M665.358942 371.153128c6.08385 3.09932 12.052911 6.428219 17.792392 9.642328-2.98453 6.007324-25.598087 47.982064-60.532397 25.215455-0.880054-0.535685-1.760108-1.147896-2.640161-1.798371-9.604065-7.346536-33.86294-14.884388-33.86294-29.194828-1.224423-16.682759 4.438532-23.531874 9.221433-31.299305s10.36933-8.800538 11.249384-11.478963c0-0.038263 37.612734 28.123459 58.772289 38.913684z" fill="#D4C8C6" p-id="2333"></path><path d="M528.032285 772.189821a14.578283 14.578283 0 0 0 4.094163-2.02795 28.812196 28.812196 0 0 0 6.696062-6.887377c16.108811 4.438532 34.972573 13.736492 46.528062 12.205963 0.497422 0 0.994843 0 1.454002-0.229579a10.828488 10.828488 0 0 0 5.509902-2.98453c12.818175 7.920484 22.957925 11.938121 32.294148 18.136761a70.136462 70.136462 0 0 1 7.652642 5.854271c6.466482 5.739481 19.514237 13.200807 26.784246 22.575293 5.739481 7.231747 8.150064 15.611389 1.683581 25.138929-67.917196 0.459159-134.801285-0.459159-166.751064-4.362006-46.948957 4.0559-118.042 10.751962-189.135043-1.989687-6.007324-9.374486-6.696062-13.315597-10.713698-7.652642s-7.652642 6.772588-18.328077 5.433376c-16.261864-0.765264-63.937822-4.935954-73.159256-12.39728 0 0 2.066213-8.762275-1.951424-12.588596 16.108811 0 50.890068 8.073537 126.26859-24.909349a150.374411 150.374411 0 0 0 39.602421 3.252373c51.846648 1.339212 75.95247 0 77.329946 0a26.325088 26.325088 0 0 0 10.675435-3.596742 25.445034 25.445034 0 0 0 4.974217-3.826321c9.144907 0 24.029295 2.946267 35.125626-3.022793l1.607055-0.95658a23.6084 23.6084 0 0 0 6.772588-6.619536c11.632016 1.224423 18.748972 3.481952 24.985876 1.454002z" fill="#9ABBD2" p-id="2334"></path><path d="M645.041178 488.468126c1.568792 15.649652-7.384799 17.448023-20.126448 10.943278-4.208953-1.454002-7.652642-7.308273-10.751962-14.693072a213.54697 213.54697 0 0 1-9.871908-40.635528c2.02795-5.24206 1.645318-17.448023 2.410582-20.011658 4.017637-10.598909 8.609222-16.759286 13.277334-19.896869 0.880054 0.650475 1.760108 1.262686 2.640161 1.798371-1.568792 0.650475-2.678425 13.047754 2.14274 21.771766q0.459159 0.841791 1.033107 1.721844c2.181003 1.377476 5.318586 8.188327 8.456169 16.912339a273.352365 273.352365 0 0 1 8.609222 29.69225 115.669681 115.669681 0 0 1 2.181003 12.397279zM580.146775 746.936103l44.500112 43.467006c-9.29796-6.19864-19.475973-10.216277-32.294148-18.136761a10.828488 10.828488 0 0 1-5.509902 2.98453z" fill="#DE3844" p-id="2335"></path><path d="M614.162768 484.718332l-16.108811 7.997011h-0.803527a105.376878 105.376878 0 0 0-3.826321-17.294971c-4.476795-27.052089 2.908004-29.845303 2.908004-29.845303a17.027128 17.027128 0 0 1 5.356849 0.841791c1.07137 0 1.836634-0.918317 2.410582-2.410582a213.54697 213.54697 0 0 0 10.063224 40.712054z" fill="#DE3844" p-id="2336"></path><path d="M597.25043 492.791869a91.181227 91.181227 0 0 1-0.727001 29.424408c-5.395112 5.662955-10.292803 8.953591-21.006502-1.109633-2.98453-2.295793-4.935954-7.843958-6.160377-14.731336-3.367162-18.863762-1.454002-47.905538-1.454002-47.905537a8.417906 8.417906 0 0 1 2.410583-1.836634c3.826321-1.760108 15.305284-11.058067 26.210298-10.981541s-7.384799 2.793214-2.908004 29.845303a105.376878 105.376878 0 0 1 3.635005 17.29497zM511.732158 733.237875l73.656677 42.08953c-11.478963 1.530528-30.610567-7.652642-46.528062-12.205964a28.812196 28.812196 0 0 1-6.696062 6.887377z" fill="#DE3844" p-id="2337"></path><path d="M569.35655 506.375308l-23.646663 12.473806c1.874897-19.361184 4.094163-40.712054 7.920484-42.08953h1.454002c4.706375-5.892534 8.953591-14.233914 12.818175-18.136761 0-0.153053-1.91316 28.888723 1.454002 47.752485z" fill="#DE3844" p-id="2338"></path><path d="M553.630371 476.797848c-3.826321 1.339212-6.045587 22.690083-7.920484 42.08953-0.497422 5.471639-0.994843 10.790225-1.492265 15.305283-1.874897 18.136761-6.466482 20.126448-18.787236 12.091174a27.128615 27.128615 0 0 1-8.417906-18.787235 92.788282 92.788282 0 0 1 5.318586-34.436888l2.678425-1.721845s7.958747-11.785068 28.62088-14.540019zM482.116434 748.084l45.915851 24.105821c-6.275166 2.02795-13.392123-0.229579-24.832823-1.262686a23.6084 23.6084 0 0 1-6.772588 6.619536z" fill="#DE3844" p-id="2339"></path><path d="M519.193483 568.28518c9.18317 5.624692 13.851282 12.932965 3.826321 18.48113-3.558478 0.191316-20.547343 8.991854-41.783424 21.044765-19.131605 12.091174-23.837979 12.473806-32.179359 12.167701-7.15522 0-44.576639-13.698229-44.576638-13.698229a116.741051 116.741051 0 0 0-6.887378-15.113968l17.256707-8.762274a14.884388 14.884388 0 0 0 0.880054 5.318586c4.247216 10.484119 6.275166 18.748972 13.430386 18.557656 7.346536-2.02795 9.374486-6.19864 12.51207-28.046932 0.382632-2.831477 0.880054-5.701218 1.454002-8.570959l19.667289-10.637172a20.049922 20.049922 0 0 0 3.252373 12.359016c9.833645 12.320753 16.529706 13.200807 21.006502 8.035274s7.652642-5.777745 3.328899-23.455347c2.601898-3.826321 5.701218-5.816008 9.833645-4.132426a112.149466 112.149466 0 0 0 18.978551 16.453179z" fill="#534E51" p-id="2340"></path><path d="M504.385621 502.089829a123.666692 123.666692 0 0 0 17.945445-9.106644 92.788282 92.788282 0 0 0-5.318586 34.436888l-25.712876 14.654809c1.492265-17.792392 4.668112-36.196996 13.086017-40.138106z" fill="#DE3844" p-id="2341"></path><path d="M504.385621 502.089829c-8.417906 3.826321-11.478963 22.345714-13.086017 40.138106-0.382632 4.706375-0.688738 9.412749-0.918317 13.736492 4.476795 17.677603 1.109633 18.328077-3.328899 23.455347s-11.172857 4.285479-21.006502-8.035274a20.049922 20.049922 0 0 1-3.252373-12.359016c0-16.032285 8.915328-38.492788 9.18317-39.181526s6.275166-13.736492 29.80704-16.721022zM443.853225 767.483447l50.928331 11.019804c-11.096331 5.969061-25.980719 3.022794-35.125626 3.022793a25.445034 25.445034 0 0 1-4.974217 3.826321z" fill="#DE3844" p-id="2342"></path><path d="M456.633137 530.289814c13.813018-8.532696 15.305284-10.25454 15.305283-10.445856-0.267842 0.688738-9.18317 22.957925-9.18317 39.181526l-19.667289 10.637172c3.788058-19.131605 10.675435-37.574471 13.545176-39.372842z" fill="#DE3844" p-id="2343"></path><path d="M443.853225 767.483447l10.828488 17.754129a26.325088 26.325088 0 0 1-10.675435 3.596741c-1.377476 0-25.483297 1.186159-77.329946 0a150.374411 150.374411 0 0 1-39.602421-3.252372c-28.123459-6.351693-44.308796-20.241238-60.532397-28.353038a70.8252 70.8252 0 0 0-19.43771-9.871908c1.607055 0.420895 119.304686 30.610567 181.252821 22.957925 3.481952-1.721844 7.423063-4.094163 11.785068-6.849114 1.377476 1.224423 2.601898 2.640161 3.711532 4.017637z" fill="#1E1D20" p-id="2344"></path><path d="M443.087961 569.662656c-0.573948 2.869741-1.07137 5.739481-1.454002 8.570959-3.137583 21.848292-5.165533 26.018982-12.51207 28.046932-7.15522 0.191316-9.18317-8.073537-13.430386-18.557656a14.884388 14.884388 0 0 1-0.880054-5.318586c0-12.28249 9.144907-32.179359 9.144907-32.179359a46.795905 46.795905 0 0 1 29.80704-18.175024l2.869741-1.760108c-2.869741 1.798371-9.757118 20.241238-13.545176 39.372842zM494.59024 731.171661c-20.853449 9.451013-39.832001 22.957925-54.37202 32.141096-32.523728-35.355205-93.668336-64.320454-147.236828-76.526418C237.231896 674.006427 138.895449 643.510649 138.895449 643.510649c7.04043-3.405426 12.588596-4.094163 26.210298-5.280322 21.006502-3.826321 66.922353-14.693072 104.190718-20.62387a471.058366 471.058366 0 0 0 47.369853-15.305284s11.019804-8.647485 21.159555-9.221433c10.13975-6.581272 19.667289-12.512069 19.667289-12.512069l2.678425-3.520216a184.390404 184.390404 0 0 0 7.652641 23.876243s-31.031463 14.654809-16.147074 34.781257c15.075704 17.715866 51.425753 32.179359 51.425753 32.179359s29.539197 14.42523 91.487333 63.287347z" fill="#DE3844" p-id="2345"></path><path d="M440.21822 763.312757c-4.362006 2.754951-8.303116 5.12727-11.785069 6.849114-61.948135 7.652642-179.645766-22.53703-181.252821-22.957925a412.860025 412.860025 0 0 0-64.129138-15.534863C115.287049 723.595546 97.609446 696.390404 97.609446 696.390404a78.324789 78.324789 0 0 1 5.701218-16.376653 66.731037 66.731037 0 0 1 28.391301-32.408938c2.793214-1.683581 5.12727-3.022794 7.308273-4.094164 0 0 98.412974 30.610567 154.085943 43.237427 53.453703 12.244227 114.598311 41.209476 147.122039 76.564681z" fill="#B90418" p-id="2346"></path><path d="M423.956356 550.224946s-9.221433 19.896869-9.144907 32.179359l-17.256707 8.762274q-0.803527-1.492265-1.607055-3.099319c-3.826321-10.101487-7.652642-20.356027-7.652642-20.356028 18.136761-7.805695 35.661311-17.486287 35.661311-17.486286z" fill="#DE3844" p-id="2347"></path><path d="M404.442119 606.280547a21.810029 21.810029 0 0 1-3.82632 23.837979c-10.445856 12.205964-17.601076-4.782901-25.942456-16.414916a61.488977 61.488977 0 0 1-6.657799-12.703386 184.390404 184.390404 0 0 1-7.652641-23.876242c3.290636-4.094163 5.854271-5.548165 19.973395-6.045587 2.716688-1.033107 5.471639-2.181003 8.22659-3.367163 0 0 3.826321 10.25454 7.652641 20.356028q0.803527 1.607055 1.607055 3.099319a116.741051 116.741051 0 0 1 6.619535 15.113968z" fill="#DE3844" p-id="2348"></path><path d="M266.618041 757.075854c16.223601 8.1118 32.408938 22.001345 60.532396 28.353038-75.378522 32.982886-110.159779 24.909349-126.26859 24.909349 3.826321 3.826321 1.951424 12.588596 1.951424 12.588596-22.957925-3.826321-104.343771-16.835812-124.431956-41.630372-18.136761-26.784246-10.063224-32.638517 1.989687-59.690606 5.395112-21.69524 16.108811-21.006502 17.218444-25.253718 0 0 17.677603 27.243405 85.403483 35.316942a412.860025 412.860025 0 0 1 64.129138 15.534863 70.8252 70.8252 0 0 1 19.475974 9.871908z" fill="#1E1D20" p-id="2349"></path><path d="M395.947687 849.67282a518.925641 518.925641 0 0 1-91.831702-7.461326L302.279351 841.790599l-1.07137-1.721845c-1.186159-1.798371-2.14274-3.367162-2.98453-4.744638l-0.918317-1.568791c-5.548165 6.772588-11.478963 7.384799-21.810029 6.122113-0.306106 0-59.728869-3.137583-74.421942-12.588596h-1.262685c-44.806218-7.652642-106.524774-20.164711-124.967641-42.93132l-0.267843-0.344369c-16.950602-25.138928-12.39728-34.704731-3.252372-53.759809 1.454002-3.022794 3.022794-6.351693 4.706374-10.063224 4.17069-16.491443 11.708542-21.58045 15.726179-24.297137 0.497422-0.344369 1.147896-0.765264 1.492265-1.07137a82.457215 82.457215 0 0 1 5.701219-16.529707 71.131306 71.131306 0 0 1 30.610567-34.70473 77.215156 77.215156 0 0 1 7.652642-4.17069c7.652642-3.826321 14.157387-4.553322 27.626036-5.739481 7.652642-1.377476 18.634183-3.826321 31.337569-6.389956 21.810029-4.629848 48.900381-10.407593 72.508781-14.157388a474.769898 474.769898 0 0 0 45.915851-14.769598 51.808385 51.808385 0 0 1 21.886555-9.680592c8.150064-5.24206 15.764442-10.024961 18.060235-11.478963l0.918317-1.224423 1.262686-1.683581 7.346536 5.816008-1.147896 1.530528-1.492266 1.951424-0.497421 0.650475-0.727001 0.459158S350.452731 590.554368 340.54256 596.906061l-1.033106 0.688738h-1.262686a40.559002 40.559002 0 0 0-18.519393 8.264853l-0.535685 0.420895-0.650475 0.229579a481.657275 481.657275 0 0 1-47.943801 15.305284h-0.420895c-23.417084 3.826321-50.469173 9.489276-72.240939 14.119124-12.894701 2.754951-24.029295 5.089007-31.83499 6.504746h-0.420895c-13.506913 1.186159-18.404604 1.836634-24.56498 4.821164-1.874897 0.918317-4.017637 2.104476-6.925641 3.826321a62.7134 62.7134 0 0 0-26.439877 30.036619l-0.191316 0.420895a75.072416 75.072416 0 0 0-5.203797 15.305284 10.675435 10.675435 0 0 1-5.242059 6.275166c-3.481952 2.372319-8.724012 5.892534-12.014648 19.131605l-0.267843 0.803527c-1.760108 3.826321-3.443689 7.652642-4.974217 10.675435-8.724012 18.213287-11.478963 23.72319 2.448846 44.308796 12.359017 14.960915 52.420596 28.238248 119.151633 39.449369l3.481952 0.573948 0.95658 0.765264c6.619535 5.318586 45.494956 10.178014 70.442568 11.478963 10.407593 1.300949 11.823332 0 14.348703-3.481952a8.991854 8.991854 0 0 1 6.963904-4.17069c3.826321 0 5.816008 3.405426 8.532696 7.882221 0.535685 0.841791 1.07137 1.798371 1.721844 2.831478 67.687617 11.746805 136.102235 5.854271 181.558927 1.951423l4.782901-0.420895h0.459159c35.125626 4.247216 109.738883 4.668112 166.177116 4.285479 73.159256-0.497422 147.542934-2.601898 180.372768-4.323742 30.87841 0 129.903595-6.313429 172.720125-13.621703 33.212465-8.609222 31.911516-18.710709 30.610567-29.386144a59.881922 59.881922 0 0 1-0.573948-6.428219l-0.420895-17.371497c-0.191316-7.652642-0.382632-15.994021-0.612211-24.947612V742.306255l0.420895-0.95658c7.27001-16.414917 4.629848-24.029295 0.267842-36.617891l-1.339212-3.826321 0.420895-1.454002c8.800538-29.960093 3.367162-70.901726-2.946267-118.309842l-1.721844-12.856439v-0.344368a168.090277 168.090277 0 0 0-3.558479-34.781257c-9.795382-49.053434-37.07705-102.047978-49.01517-118.615948-2.754951-2.908004-5.203796-5.816008-7.3848-8.379643-12.052911-14.31044-17.562813-20.853449-49.742171 2.14274-46.528062 39.908527-96.997235-14.501756-118.615948-37.765788-2.640161-2.869741-4.935954-5.356849-6.543009-6.887377l-1.568792-1.492266v-2.219266c0-0.612211 0.267842-2.257529 0.612212-4.668111 6.19864-40.329422 6.08385-70.366041-0.306106-89.268067-8.34138-18.672446-19.131605-29.271355-29.960093-29.041775a14.080861 14.080861 0 0 0-12.588595 7.652641l-0.918317 2.25753-2.372319 0.573948c-18.672446 4.438532-40.865107 35.661311-55.55818 56.323443-3.826321 5.12727-6.810851 9.565802-9.604065 13.200808-6.275166 8.188327-10.943278 12.588596-15.994022 10.790225-4.208953-1.454002-5.050744-6.160377-5.892534-10.713699a35.087363 35.087363 0 0 0-1.415739-5.969061 14.540019 14.540019 0 0 0-9.06838-7.652641 13.46865 13.46865 0 0 0-11.478963 0.765264l-0.573948 0.382632h-0.688738c-8.915328 2.448845-9.259697 2.869741-15.305283 9.757118l-0.994844 0.880054-2.295792 1.415739c-9.604065 6.122113-13.966071 9.833645-16.032285 16.950601a10.751962 10.751962 0 0 1-4.782901 5.395113 21.006502 21.006502 0 0 0-6.963904 7.15522l-1.530529 2.448845a36.196996 36.196996 0 0 0-7.04043 26.095509c0 7.652642 11.478963 14.042598 20.738659 19.131604a91.066437 91.066437 0 0 1 11.478963 6.810852l5.203796 3.82632-5.471638 3.826321c-4.285479 2.869741-8.150064 8.800538-11.478963 17.677603 0 0.306106-0.191316 2.869741-0.306106 4.706375a57.394814 57.394814 0 0 1-2.14274 15.305283 7.193483 7.193483 0 0 1-6.772588 5.395113h-0.727001l-0.727-0.22958a13.086017 13.086017 0 0 0-3.826321-0.650474c-7.078694 0-15.037441 5.050744-19.782079 8.035274a40.023317 40.023317 0 0 1-4.323743 2.525372 5.930797 5.930797 0 0 0-1.07137 0.918317 63.66998 63.66998 0 0 0-6.122113 8.570958 110.542411 110.542411 0 0 1-6.31343 9.144907l-1.224423 1.568792H554.778268c-18.136761 2.410582-25.138928 12.052911-25.445034 12.473806l-0.459159 0.650475-0.650474 0.497421s-1.033107 0.727001-2.908004 1.874898l-4.935954-7.958748 1.874897-1.186159c2.334056-2.946267 11.478963-12.856438 30.610567-15.573126 1.568792-2.14274 3.137583-4.553322 4.629849-6.887378a65.047455 65.047455 0 0 1 7.384799-10.13975 13.46865 13.46865 0 0 1 3.826321-2.754952 35.508258 35.508258 0 0 0 3.290636-1.989686c5.662955-3.558478 15.305284-9.565802 24.985875-9.451013a23.876242 23.876242 0 0 1 3.826321 0.306106 73.465361 73.465361 0 0 0 1.18616-11.478963 33.059413 33.059413 0 0 1 0.765264-7.27001 56.28518 56.28518 0 0 1 10.063224-17.907182l-5.24206-2.86974c-11.478963-6.160377-25.63635-13.851282-25.63635-26.784247a45.380166 45.380166 0 0 1 8.532696-31.490621l1.415738-2.257529a29.768777 29.768777 0 0 1 9.642329-10.024961l1.300949-0.918317c2.869741-9.451013 8.724012-14.540019 19.820343-21.58045l1.760107-1.109633a29.271355 29.271355 0 0 1 18.404604-11.708542 22.957925 22.957925 0 0 1 18.863762-1.339212 23.799716 23.799716 0 0 1 14.846125 13.200807 40.941634 40.941634 0 0 1 1.874897 7.652642c0 0.497422 0.191316 1.07137 0.306106 1.683581a69.524251 69.524251 0 0 0 4.935954-5.816008c2.678425-3.520215 5.777745-7.882221 9.374486-12.932964 15.917495-22.345714 37.497945-52.688439 58.887079-59.384501a23.49361 23.49361 0 0 1 20.049921-11.478962h0.459159c8.724012 0 24.947612 4.668112 38.263209 34.81952v0.382632c10.484119 30.610567 3.21411 78.248262 0.803527 93.897915 0 0.727001 0 1.377476-0.267842 1.91316 1.454002 1.492265 3.21411 3.367162 5.242059 5.548166 19.743816 21.312607 66.042299 71.207832 105.75951 36.923996l0.344369-0.267842c37.497945-26.784246 48.211643-17.715866 62.59861-0.688738 2.219266 2.640161 4.553322 5.395112 7.193483 8.188327l0.420895 0.459158c12.244227 16.874075 40.635528 71.858307 50.775279 122.442269a175.054181 175.054181 0 0 1 3.826321 36.350049l1.607054 12.205964c6.351693 47.714222 11.861595 89.038487 3.09932 120.720424l0.344369 0.994843c4.515059 13.009491 8.1118 23.340558 0 42.548689 0.229579 8.532696 0.420895 16.606233 0.612212 23.914506l0.420895 17.333233c0 1.721844 0.267842 3.558478 0.497422 5.548166 1.91316 15.305284 0.497422 29.80704-37.689261 39.678947h-0.382632c-43.1609 7.384799-143.333981 13.774755-174.250654 13.774756-32.715044 1.721844-107.136985 3.826321-180.602347 4.323742-56.438233 0.382632-131.051491 0-166.865854-4.323742l-3.826321 0.344368c-25.674613 2.563635-58.466183 5.356849-94.395337 5.35685z m206.621329-519.576116z" fill="#3E3D42" p-id="2350"></path><path d="M476.185636 521.833645l-8.494432-3.826321c0.306106-0.650475 7.652642-15.879232 32.90636-19.131605l2.02795-0.803527a119.993424 119.993424 0 0 0 17.218444-8.762275l4.974217 7.920484a123.322323 123.322323 0 0 1-18.634183 9.489276l-2.754951 1.109633-1.07137 0.267843c-20.241238 2.257529-25.942456 13.277334-26.172035 13.736492z" fill="#3E3D42" p-id="2351"></path><path d="M363.844855 580.031986l-7.308273-5.816008c4.553322-5.739481 8.838801-7.27001 22.651819-7.652642 2.410582-0.95658 4.897691-1.989687 7.308273-3.061057 15.305284-6.619535 30.610567-14.693072 34.436889-16.759285a51.923175 51.923175 0 0 1 31.299304-19.131605l2.104477-1.262686a116.932367 116.932367 0 0 0 14.233914-9.527539l2.104476 2.14274 5.318586 3.481952c-0.535685 0.841791-1.645318 2.525372-16.759285 11.861595l-3.826321 2.257529h-0.880054a42.08953 42.08953 0 0 0-26.784246 16.147074l-0.612212 0.956581-1.033106 0.535685s-17.907182 9.871908-35.967417 17.677602c-2.793214 1.224423-5.624692 2.372319-8.379643 3.443689l-0.765264 0.306106h-0.803527c-13.315597 0.612211-14.31044 1.874897-16.33839 4.400269zM642.821912 417.375084a41.783424 41.783424 0 0 1-22.957926-7.652642l-2.831477-1.951423 5.548165-7.652642 2.372319 1.645318a29.730513 29.730513 0 0 0 24.450191 5.050743c17.065391-4.629848 28.161722-26.018982 29.347881-28.467827l0.306106-0.612211 8.456169 3.82632-0.344369 0.727001c-2.295793 4.629848-14.731335 27.77909-35.278679 33.365519a36.082206 36.082206 0 0 1-9.06838 1.721844zM696.390404 357.761004c-4.323743-2.525372-13.35386-7.652642-25.330244-14.233913-21.963082-12.205964-48.556012-26.784246-48.556012-26.784247l4.476795-8.188326s26.784246 14.578283 48.594276 26.784246c8.532696 4.706375 19.896869 11.058067 25.52156 14.31044zM721.567596 401.11322h-1.874897a33.97773 33.97773 0 0 1-6.42822-0.95658l2.25753-9.106644a24.985875 24.985875 0 0 0 4.629848 0.727001 14.42523 14.42523 0 0 0 12.28249-3.826321 10.36933 10.36933 0 0 0 0.918317-8.877064 71.973096 71.973096 0 0 0-17.830655-12.091174c-3.175846-1.568792-6.19864-2.869741-8.838801-3.826321a64.396981 64.396981 0 0 1-8.22659-3.826321l-2.066214-1.18616 4.629849-8.150063c0.994843 0.535685 1.760108 1.033107 2.334055 1.377476a73.388835 73.388835 0 0 0 7.078694 3.328899c2.754951 1.186159 5.892534 2.563635 9.259697 4.247216a79.855317 79.855317 0 0 1 21.159554 14.540019l0.841791 0.803528 0.344369 1.109633a19.131605 19.131605 0 0 1-2.104477 18.519393 22.154398 22.154398 0 0 1-18.36634 7.193483z" fill="#3E3D42" p-id="2352"></path><path d="M713.264479 400.04185c-9.489276-2.334056-20.62387-8.609222-32.408938-15.305283-5.395112-3.022794-11.478963-6.466482-17.601076-9.565802-21.274344-10.790225-57.930498-38.263209-59.461027-39.334579l5.586429-7.652642c0.382632 0.306106 37.574471 28.046932 58.121814 38.492788 6.275166 3.175846 12.473806 6.657798 17.945446 9.718855 11.21112 6.313429 21.810029 12.244227 30.074882 14.31044zM669.146999 341.805246c-4.438532-7.652642 2.066213-19.131605 3.405426-21.121291l0.497422-0.650475 3.520215 3.09932 3.826321 2.448846c-2.372319 3.826321-4.323743 9.718855-3.290636 11.478962zM802.723862 363.041327a126.574695 126.574695 0 0 0-25.177191-23.876242c-24.067558-16.759286-40.90337-11.785068-41.592109-11.478963h-0.880053c-24.258875 2.831477-31.643674 26.286825-31.94978 27.281668l-4.476795-1.339212h-4.668112v-1.377476c3.405426-11.172857 15.4966-30.610567 39.411105-33.824676 3.481952-0.95658 23.264031-5.165533 49.321277 12.971227a135.604813 135.604813 0 0 1 27.052089 25.63635z" fill="#3E3D42" p-id="2353"></path><path d="M783.133099 338.973769l-5.816008-7.346536c2.98453-2.334056 7.652642-19.629026 8.264854-50.622226-1.300949-25.712876-31.337568-33.74815-31.643674-33.824677l2.295792-9.06838c1.530528 0.382632 37.038786 9.871908 38.684105 42.740004-0.344369 15.190494-2.219266 50.545699-11.785069 58.121815zM664.784994 846.611763l-7.652642-5.280323c4.515059-6.619535 4.0559-12.626859-1.454002-19.590763a92.214334 92.214334 0 0 0-17.754129-15.305284c-3.21411-2.334056-6.275166-4.553322-8.609222-6.619535a71.934833 71.934833 0 0 0-7.15522-5.509902 154.315522 154.315522 0 0 0-14.731336-8.303116c-4.400269-2.295793-9.29796-4.859428-14.654809-8.035274a15.994021 15.994021 0 0 1-4.782901 1.874897 14.769599 14.769599 0 0 1-1.951424 0.344369c-8.877064 1.147896-20.356027-2.869741-32.523727-7.15522-4.247216-1.530528-8.647485-3.061057-12.818175-4.323743a29.500934 29.500934 0 0 1-5.739482 5.35685 20.50908 20.50908 0 0 1-5.356849 2.640161 38.684104 38.684104 0 0 1-17.562813 0l-6.543009-0.841791a27.128615 27.128615 0 0 1-6.389955 5.624692 19.475973 19.475973 0 0 1-1.913161 1.147896l-4.400269-8.264853 1.262686-0.765264a18.442867 18.442867 0 0 0 5.433376-5.318586l1.568791-2.257529 2.716688 0.229579c3.558478 0.344369 6.696062 0.765264 9.565802 1.147896a32.064569 32.064569 0 0 0 13.392123 0.344369 11.478963 11.478963 0 0 0 2.908004-1.454002 24.488454 24.488454 0 0 0 5.548166-5.777744l1.91316-2.601899 3.09932 0.841791c5.356849 1.492265 10.981541 3.481952 16.414917 5.395112 10.598909 3.826321 21.542187 7.652642 28.276511 6.696062l0.994844-0.191316a6.275166 6.275166 0 0 0 3.252372-1.645318l2.601899-2.716688 3.214109 1.989687c6.08385 3.826321 11.478963 6.619535 16.797549 9.336223a166.789328 166.789328 0 0 1 15.611389 8.877065 81.500635 81.500635 0 0 1 8.150064 6.236903c1.989687 1.798371 4.897691 3.826321 7.920484 6.122113a100.823556 100.823556 0 0 1 19.590763 17.065391c9.986698 12.779912 6.581272 23.72319 1.760108 30.687094zM411.48255 793.961587c-13.583439 0-28.582617-0.191316-44.844481-0.612211a141.573873 141.573873 0 0 1-88.388013-24.258875c-4.782901-2.869741-9.29796-5.586429-13.736492-7.652641l-0.880054-0.573948a65.315298 65.315298 0 0 0-18.060234-9.068381l3.214109-8.800538a75.684627 75.684627 0 0 1 20.356027 10.292803c4.629848 2.334056 9.144907 5.050744 13.927808 7.920484a145.055825 145.055825 0 0 0 45.112324 19.858606 144.74972 144.74972 0 0 0 38.263209 3.09932c29.845303 0.765264 55.137284 0.841791 75.455048 0.191316h2.181003a22.957925 22.957925 0 0 0 8.188327-2.908004 22.53703 22.53703 0 0 0 4.094163-3.09932l1.377476-1.300949h1.874897c2.181003 0 4.706375 0 7.423062 0.344369 8.035274 0.535685 18.098498 1.186159 25.483298-2.793214l4.438532 8.264853c-9.718855 5.24206-21.274344 4.476795-30.610567 3.826321-1.798371 0-3.481952-0.229579-5.050744-0.267843a33.288992 33.288992 0 0 1-4.400269 3.061057 29.271355 29.271355 0 0 1-13.162544 4.208953h-1.607055c-9.106644 0.153053-19.399447 0.267842-30.64883 0.267842zM245.535012 751.604215a412.745236 412.745236 0 0 0-63.249084-15.305284c-68.873776-8.188327-88.005381-36.235259-88.617592-37.421418l7.882221-5.089007-3.826321 2.563635 3.826321-2.601898c0 0.267842 17.868919 25.63635 82.03632 33.250729a412.668709 412.668709 0 0 1 65.047455 15.802705z" fill="#3E3D42" p-id="2354"></path><path d="M207.386593 824.03647l-9.106644-2.181003 4.553322 1.07137-4.591585-1.07137c0.612211-2.563635 0.688738-6.925641-0.573948-8.111801l-8.532696-8.073537h11.746805c2.295793 0 4.974217 0 8.073538 0.344369 18.289814 1.07137 52.382333 3.09932 116.320155-24.871086l3.826321 8.570959c-66.004036 28.888723-101.550557 26.784246-120.643898 25.63635h-0.497422a27.587774 27.587774 0 0 1-0.573948 8.685749zM406.087437 776.054406c-63.746506 0-155.654734-23.187505-160.01674-24.297138l-1.377475-0.344369-1.033107-1.109633 3.481952-3.09932v-4.706375l1.109633 0.497422v-0.344369c4.897691 1.262686 118.615948 29.960093 178.72745 22.957925 2.793214-1.454002 6.160377-3.405426 10.675435-6.275166 3.09932-1.951424 6.428219-4.094163 9.910171-6.389956a347.621254 347.621254 0 0 1 45.112323-25.942455c21.389134-9.680592 40.176369-13.124281 57.394814-10.522383 46.910694 7.078694 147.657724 24.641507 148.652567 24.832823h0.612211a42.854794 42.854794 0 0 0 10.216277 0.688737c2.908004 0 6.19864-0.306106 9.795382-0.650474l2.219266-0.267843c20.088185-2.448845 45.571482-9.259697 75.799417-20.317764h0.535685c11.249383-2.678425 21.542187-5.165533 31.031462-7.652641 56.744339-14.042598 83.758165-22.575293 109.891937-30.801884l7.99701-2.410582c33.135939-10.101487 67.381511-20.50908 103.655034 17.486287l-6.772588 6.466482c-32.294148-33.824677-62.330768-24.67977-94.127495-14.999178l-7.99701 2.410582c-26.210298 8.264853-53.377177 16.797549-110.389358 30.954936-9.412749 2.334056-19.667289 4.821164-30.87841 7.652642-30.610567 11.249383-56.859129 18.213287-77.597788 20.738659l-2.410582 0.267843c-3.826321 0.420895-7.423063 0.650475-10.598909 0.688738a48.28817 48.28817 0 0 1-12.818175-0.994844c-5.471639-0.95658-102.507137-17.830655-148.231672-24.756296-15.305284-2.334056-32.523728 0.880054-52.191017 9.795382a335.836186 335.836186 0 0 0-43.773111 25.368507c-3.520215 2.334056-6.887378 4.515059-10.024961 6.504746-5.203796 3.252373-8.991854 5.433376-12.205963 7.04043l-0.727001 0.382632h-0.803528a185.997459 185.997459 0 0 1-22.843136 1.147897z" fill="#3E3D42" p-id="2355"></path><path d="M854.493984 774.868246H850.093715c-23.49361-4.974217-127.646065-24.182348-128.717435-24.373664l1.721844-9.221434c1.033107 0.191316 104.075929 19.131605 128.487856 24.335401 17.601076 0.382632 50.124804-3.21411 95.007548-8.22659l24.947612-2.754951c56.820865-5.701218 73.465361-15.305284 73.618415-15.305283l4.935954 7.997011c-0.688738 0.420895-17.868919 10.751962-77.559525 16.759285l-24.909349 2.754951c-44.347059 4.668112-74.574994 8.035274-93.132651 8.035274zM802.609073 827.862791c-17.945445 0-37.91884 0-56.782603-0.344369-86.053957-1.109633-88.005381-3.443689-90.03333-5.509902l6.92564-6.31343a3.367162 3.367162 0 0 0-1.300949-0.918317c10.101487 3.481952 156.879157 4.476795 192.157836 3.175846 30.954936-1.147896 39.487632-4.017637 79.740528-19.131604a341.575667 341.575667 0 0 1 115.172259-23.952769v9.336223a340.886929 340.886929 0 0 0-111.84336 23.340558c-40.788581 15.305284-50.507436 18.36634-82.801585 19.590763-9.451013 0.535685-28.697407 0.727001-51.234436 0.727001z" fill="#3E3D42" p-id="2356"></path><path d="M758.797698 804.981392c-4.476795 0-11.287647-0.95658-14.31044-6.351693a12.932965 12.932965 0 0 1-1.033107-12.167701c2.219266-4.362006 7.308273-6.772588 15.113968-7.15522 17.52455-0.918317 122.442269-4.208953 123.475376-4.247216a16.070548 16.070548 0 0 1 14.922651 8.647485l0.306106 0.688738a11.019804 11.019804 0 0 1 0.803527 10.598909c-2.181003 3.520215-6.734325 4.476795-12.932965 4.821164-11.861595 0.650475-115.554891 4.629848-122.442268 4.897691a24.220611 24.220611 0 0 1-3.902848 0.267843z m123.360586-20.585607c-0.880054 0-105.682983 3.367162-123.092743 4.247216-5.01248 0.267842-6.925641 1.415739-7.27001 2.066214s0.191316 2.219266 0.688738 3.061056v0.267843c0.727001 1.339212 5.471639 1.874897 8.877064 1.377475h0.459159c1.109633 0 110.963306-4.247216 122.710111-4.89769a33.212465 33.212465 0 0 0 4.782901-0.573949l-0.765264-1.836634-0.306106-0.727001c-0.994843-2.793214-6.007324-2.98453-6.08385-2.98453zM450.740602 787.686421l-16.491443-27.090352 61.603767 13.315597-0.994844 4.553322 0.038264 4.706374-1.033107-0.076526-40.252896-8.724012 5.12727 8.456169-7.997011 4.859428z" fill="#3E3D42" p-id="2357"></path><path d="M492.256184 779.612884l-20.815186-42.319109 58.810553 30.76362-2.181003 4.132426v4.706375h-1.147896l-34.436889-18.021971 8.188327 16.606232-8.417906 4.132427z" fill="#3E3D42" p-id="2358"></path><path d="M583.054779 779.574621l-59.078395-33.939467 12.320754 22.269188-8.22659 4.515059-28.544354-51.617069 88.196697 50.622225-4.668112 8.150064z" fill="#3E3D42" p-id="2359"></path><path d="M621.356251 793.732008l-32.944623-32.179359 2.984531 12.588596-9.106644 2.181003-10.445856-44.00269 56.055601 54.716388-6.543009 6.696062zM440.371273 770.50624q-1.721844-1.989687-3.558479-4.017637c-29.347881-31.83499-87.546222-62.062925-144.864509-75.187205-55.213811-12.626859-153.435468-43.007847-154.430312-43.313953l2.793215-8.953591c0.95658 0.306106 98.872132 30.610567 153.70331 43.122637 59.958449 13.736492 118.615948 44.347059 149.685674 77.98042 1.300949 1.415739 2.601898 2.869741 3.826321 4.362005zM393.307526 638.995591h-0.727001c-7.461326-0.497422-12.473806-8.188327-17.754129-16.376654-1.377476-2.104476-2.716688-4.208953-4.132427-6.160376a65.965772 65.965772 0 0 1-7.193483-13.659966 189.670727 189.670727 0 0 1-7.652642-24.526717v-1.147896h4.706375l4.515058-1.147897a177.770869 177.770869 0 0 0 7.423063 23.264032 56.782602 56.782602 0 0 0 6.122113 11.708542c1.530528 2.104476 2.98453 4.362006 4.400269 6.581271 3.290636 5.050744 7.652642 11.938121 10.522383 12.129438 1.07137 0 2.219266-0.918317 3.826321-2.601898 5.12727-6.007324 5.930797-11.058067 3.137583-19.131605a118.156789 118.156789 0 0 0-6.619535-14.463493l-1.798371-3.558478c-3.826321-10.178014-7.652642-20.470817-7.652642-20.470817l8.800538-3.175847s3.635005 10.063224 7.461326 20.049922l1.492265 2.869741a120.605635 120.605635 0 0 1 7.116957 15.726179c3.826321 11.478963 2.448845 19.858605-4.859428 28.391301a14.272177 14.272177 0 0 1-11.134593 5.701218zM428.77752 610.948659c-9.106644 0-12.359017-8.417906-15.802705-17.294971-0.497422-1.339212-1.033107-2.754951-1.607055-4.17069a18.557656 18.557656 0 0 1-1.224422-7.04043c0-13.200807 9.18317-33.327255 9.565802-34.169046l8.494432 3.826321c-2.448845 5.280323-8.762275 20.968239-8.685748 30.151409a8.953591 8.953591 0 0 0 0.535685 3.596741c0.573948 1.492265 1.147896 2.908004 1.683581 4.323743 2.946267 7.652642 4.476795 10.981541 6.810851 11.287647 3.481952-1.033107 5.395112-2.716688 8.456169-23.991032 0.420895-2.908004 0.918317-5.892534 1.492265-8.838802 2.334056-11.478963 9.489276-38.569315 15.649653-42.433898l4.974217 7.958747a2.793214 2.793214 0 0 0 0.459159-0.344369c-2.02795 2.257529-8.22659 18.289814-11.861595 36.656154-0.573948 2.793214-1.07137 5.586429-1.454002 8.34138-2.98453 20.776923-5.12727 28.926986-15.917495 31.873253h-1.109633zM495.967715 542.64883l-9.336223-0.803527c2.219266-26.363351 7.078694-39.94679 15.802706-44.00269l3.826321 8.494432c-2.754951 1.339212-7.882221 7.805695-10.292804 36.311785z" fill="#3E3D42" p-id="2360"></path><path d="M481.159854 587.072416h-0.267843c-5.701218 0-11.785068-4.285479-18.557656-12.741648a23.914506 23.914506 0 0 1-4.247217-15.305284c0-16.33839 8.532696-38.263209 9.489276-40.865107l0.306106-0.803528 0.535685-0.612211 3.520215 3.09932h4.706375l-0.650475 1.607055h0.306106c-3.290636 8.34138-8.877064 25.598087-8.838801 37.459681a15.879232 15.879232 0 0 0 2.181003 9.451013c6.619535 8.264853 10.216277 9.221433 11.478962 9.221433 0.420895 0 1.186159 0 2.372319-1.339212l1.607055-1.760108c2.793214-2.98453 4.094163-4.323743 0.765264-17.486286v-1.415739c0.229579-4.362006 0.535685-9.106644 0.918317-13.851282l9.336223 0.803528c-0.382632 4.400269-0.650475 8.762275-0.880054 12.856438 3.826321 15.840969 2.066213 19.973395-3.137583 25.52156q-0.688738 0.688738-1.377475 1.492266a12.129437 12.129437 0 0 1-9.565802 4.668111zM536.029295 555.543532a26.018982 26.018982 0 0 1-13.162544-5.280323l-0.459158-0.344369a31.222779 31.222779 0 0 1-10.063224-21.886555 96.805919 96.805919 0 0 1 5.586428-36.656155l0.306106-0.803527 0.573948-0.688738 3.520215 3.137583 4.400269 1.607055a88.005381 88.005381 0 0 0-5.050743 32.561991 22.728346 22.728346 0 0 0 6.581272 15.305284c6.466482 4.17069 7.958747 3.558478 8.035274 3.520215s2.104476-1.300949 3.252372-12.320753c0.420895-3.826321 0.803527-7.920484 1.224423-12.244227l0.306106-3.137584c3.367162-35.469995 5.433376-44.079217 10.981541-45.91585l3.137583 8.800538a3.137583 3.137583 0 0 0 1.224423-0.765264c-2.640161 3.826321-5.01248 28.314775-6.045587 38.87542l-0.306106 3.137583c-0.382632 4.362006-0.803527 8.570959-1.186159 12.320753-0.918317 8.609222-2.563635 16.988865-8.570959 19.820343a9.986698 9.986698 0 0 1-4.28548 0.95658zM587.378522 532.241238c-4.132427 0-8.991854-2.066213-14.922652-7.652642-3.826321-2.946267-6.122113-8.494432-7.652642-17.486287-3.405426-19.131605-1.607055-47.790748-1.530528-49.015171l9.374486 0.612212c0 0.306106-1.836634 28.697407 1.377476 46.757641 1.645318 9.106644 3.826321 11.478963 4.400269 11.823332l0.382632 0.306106c7.652642 7.15522 9.833645 6.007324 13.46865 2.295792a92.061281 92.061281 0 0 0 0.420895-26.59293 101.58882 101.58882 0 0 0-3.481952-16.529707v-0.573948c-4.591585-27.817353 2.601898-33.74815 5.892534-34.972573l3.328899 8.762275a2.487109 2.487109 0 0 0 0.727001-0.420895s-4.094163 4.132427-0.727001 24.832823a111.690307 111.690307 0 0 1 3.826321 17.754129 93.821389 93.821389 0 0 1-0.841791 31.069725l-0.306105 1.262686-0.841791 0.880054a17.792392 17.792392 0 0 1-12.894701 6.887378zM629.812421 447.985651c-4.438532-12.512069-6.619535-14.654809-6.734325-14.731335l-0.803528-0.497422-0.344368-0.650474c-0.459159-0.688738-0.880054-1.415739-1.30095-2.14274a35.699574 35.699574 0 0 1-3.061056-24.526717 5.930797 5.930797 0 0 1 3.252372-3.826321l3.596742 8.647485a3.826321 3.826321 0 0 0 1.989687-1.798371 27.54951 27.54951 0 0 0 2.448845 16.988865l0.420896 0.727001c1.645318 1.415739 4.591585 5.24206 9.374486 18.59592z" fill="#3E3D42" p-id="2361"></path><path d="M636.661535 507.637994a31.452358 31.452358 0 0 1-13.621702-3.826321c-5.050744-1.91316-9.374486-7.652642-13.239071-17.29497a214.273971 214.273971 0 0 1-10.13975-41.706898l9.259696-1.262686a208.725805 208.725805 0 0 0 9.604066 39.487632c3.826321 9.986698 7.04043 11.746805 7.920484 12.014647l0.612212 0.267843c6.504746 3.328899 10.36933 3.481952 11.785068 2.525372s1.989687-4.285479 1.530528-8.838802a107.78746 107.78746 0 0 0-2.104476-11.785068 270.559151 270.559151 0 0 0-8.417906-29.156565l8.800538-3.137583a273.314102 273.314102 0 0 1 8.762275 30.227935 116.128839 116.128839 0 0 1 2.295792 12.932964c0.841791 8.456169-1.033107 14.348703-5.586428 17.486287a13.047754 13.047754 0 0 1-7.461326 2.066213z" fill="#3E3D42" p-id="2362"></path><path d="M596.003049 488.525521l16.104985-8.004663 4.17069 8.394948-16.101159 8.004663zM898.420148 608.920708l-0.880054-0.612211c-14.654809-9.680592-50.086541-33.097676-62.675136-41.01816l-0.841791-0.650475c-1.798371-1.339212-19.629026-11.096331-36.923997-20.585606-22.957925-12.588596-48.938644-26.784246-59.690606-33.595097a36.579628 36.579628 0 0 0-21.236081-6.734325h-1.568791a14.004335 14.004335 0 0 0-3.826321 1.109633c-0.306106 0.191316-27.6643 15.305284-56.438233 28.429564-6.504746 2.98453-12.28249 5.777745-17.371497 8.264853-18.251551 8.915328-29.309618 14.31044-40.712055 8.991854l-0.573948-0.306105a404.824752 404.824752 0 0 0-51.655332-29.194829l-9.030117-3.826321 32.332411-17.065391 4.362006 8.264853-15.305284 8.150064a503.926463 503.926463 0 0 1 44.155744 25.674613c7.002167 3.061057 15.075704-0.612211 32.408938-9.068381 5.12727-2.525372 10.943278-5.356849 17.601076-8.379642 28.391301-12.856438 55.44339-27.893879 55.711232-28.046933a21.006502 21.006502 0 0 1 7.27001-2.219266 21.69524 21.69524 0 0 1 2.372319-0.229579 45.456692 45.456692 0 0 1 26.784246 8.150064c10.522382 6.619535 36.388312 20.776923 59.231448 33.288991 28.467828 15.649652 36.120469 19.896869 38.263209 21.656977 12.856438 8.073537 48.058591 31.337568 62.675136 41.01816l0.841791 0.573948zM488.946417 538.221777l25.728181-14.666288 4.641328 8.142411-25.724356 14.670114zM444.27412 574.369031h-1.147896l-0.038263-4.706375-2.219267-4.094163 19.66729-10.675436 4.476795 8.264853-20.738659 11.211121zM395.400523 586.988237l17.26436-8.762275 4.24339 8.360511-17.268186 8.762275zM494.628503 735.839773h-1.645318l-1.262686-0.994844c-60.876766-47.982064-90.3777-62.522084-90.683805-62.675136-1.186159-0.459159-37.268366-14.960915-52.918018-33.365518a21.848292 21.848292 0 0 1-4.553322-19.131605c3.558478-14.080861 21.46566-22.690083 22.230924-22.957925l4.017637 8.456169c-4.094163 1.951424-15.305284 8.762275-17.141917 16.874075a12.435543 12.435543 0 0 0 2.793214 10.866752c13.927808 16.414917 49.015171 30.610567 49.35954 30.610567 1.568792 0.727001 31.031463 15.305284 92.673492 63.899559l-2.908004 3.826321zM451.505867 624.685151h-2.678425c-7.423063 0-39.640685-11.478963-45.915851-13.966072l3.252373-8.800538c17.983708 6.581272 38.99021 13.392123 42.969584 13.392123 7.231747 0.267842 11.096331 0.382632 29.653987-11.478962 31.184515-17.715866 39.755474-20.968239 42.740004-21.618713 1.836634-1.109633 2.525372-2.104476 2.525372-2.640162s-1.454002-3.826321-7.193483-7.346536a95.658023 95.658023 0 0 1-17.945445-15.305284l-1.07137-1.071369c-0.765264 0-1.836634 0.229579-3.520216 2.678424l-7.652641-5.356849c5.701218-8.188327 12.129437-7.15522 15.305283-5.777745l0.765264 0.306106 0.573949 0.497422c0.459159 0.420895 1.224423 1.186159 2.219266 2.219266a90.071594 90.071594 0 0 0 16.147074 13.774755c7.652642 4.744638 11.785068 10.101487 11.478963 15.4966a13.047754 13.047754 0 0 1-8.073538 11.058067l-0.918317 0.535685h-1.071369c-1.874897 0.306106-12.512069 4.974217-39.755475 20.470817-16.988865 11.058067-23.455347 12.932965-31.834989 12.932965zM719.11875 710.203423c-52.267544 0-92.673492-9.986698-126.536432-19.399447-26.478141-7.384799-70.901726-25.598087-77.329945-43.122637-3.175846-11.096331 16.721022-23.952769 133.921231-64.473507l5.701219-1.989687c31.758463-11.478963 88.541066 2.334056 99.484343 5.280323h0.612211l-2.525371 9.030117h-0.573949c-6.389956-1.721844-64.205665-16.414917-94.012704-5.471639l-5.777745 1.989687c-79.89358 27.626037-122.901427 45.571482-127.837381 53.568493 4.859428 10.216277 37.383155 27.090352 70.672147 36.350049 33.97773 9.451013 74.574994 19.475973 127.072117 19.131604a434.478739 434.478739 0 0 0 86.972274-12.473806l1.109633-0.306106 2.601899 8.991854-1.262686 0.344369a445.422016 445.422016 0 0 1-89.153277 12.779912z" fill="#3E3D42" p-id="2363"></path><path d="M826.485315 720.611016s-8.724012-10.713699-19.820342-24.832823c-31.337568-39.908527-48.785592-65.047455-51.846649-74.307152-3.826321-10.216277-7.652642-21.274344-6.122113-31.107989 1.530528-10.866751 8.838801-18.672446 22.269188-23.914506l0.727001-0.229579c22.957925-4.859428 38.03363 1.033107 65.659666 11.785069 6.466482 2.525372 13.659966 5.356849 21.886556 8.379642a405.092594 405.092594 0 0 0 42.854794 14.042598l1.415739 0.344369c30.304462 7.15522 47.599432 1.798371 55.902548-17.256707 6.581272-16.147074 10.866751-30.074882 14.31044-41.24774 4.859428-15.879232 8.379643-27.319931 15.305284-36.273522l1.186159-1.607055c4.782901-6.351693 9.259697-12.39728 16.606233-12.1677 8.953591 0.306106 18.787236 10.407593 36.273522 37.306629l-7.843958 5.089007c-14.157387-21.733503-23.799716-32.868097-28.73567-33.02115-2.410582 0-5.318586 3.826321-8.724011 8.417906l-1.18616 1.607055c-5.777745 7.652642-9.106644 18.442867-13.698228 33.403781-3.520215 11.478963-7.652642 25.52156-14.616546 42.08953-13.851282 31.681937-45.533219 27.932143-68.185039 22.383978l-1.415739-0.344369a430.537628 430.537628 0 0 1-42.472162-14.042598c-8.264853-3.022794-15.534863-5.854271-22.039608-8.379643-26.784246-10.36933-40.099843-15.611389-59.920185-11.478962-12.894701 5.12727-15.305284 11.478963-16.032285 16.376653-1.109633 7.652642 2.219266 17.830655 5.624692 26.784246 2.716688 8.22659 21.044765 34.436888 50.430909 71.666991 11.019804 14.042598 19.629026 24.56498 19.705553 24.67977zM719.34833 504.385621l-6.581272-6.657798c0.497422-0.497422 0.344369-2.946267-2.372319-7.193483a50.813542 50.813542 0 0 0-5.969061-7.652642c-0.994843-1.147896-19.131605-22.498767-24.756296-31.184515a38.263209 38.263209 0 0 1-4.859428-19.131605l-49.742171-0.459158v-9.374487l59.920185 0.573948-0.573948 5.12727a33.633361 33.633361 0 0 0 3.290636 18.098498c5.12727 8.1118 23.570137 29.653987 23.723189 29.845303a55.864285 55.864285 0 0 1 6.963904 8.800538c6.160377 10.445856 3.864584 16.070548 0.956581 19.208131z" fill="#3E3D42" p-id="2364"></path><path d="M713.494059 435.473582h-2.487109c-25.138928-1.109633-31.184515-2.716688-31.796727-2.908004l2.640162-8.991854a187.068829 187.068829 0 0 0 29.539197 2.525372h2.219266c7.652642 0 13.23907-1.645318 15.649653-4.859428a8.877064 8.877064 0 0 0 1.224423-7.002167 113.87131 113.87131 0 0 0-18.634183-14.769599l-0.918317-0.765264 3.481952-3.09932v-4.706375l2.640161 1.18616 0.191316-0.229579c19.973395 13.35386 21.810029 18.021971 22.192661 19.667289a18.175024 18.175024 0 0 1-2.142739 14.731336c-4.208953 6.122113-12.205964 9.221433-23.799716 9.221433z m17.027128-21.197818z" fill="#3E3D42" p-id="2365"></path><path d="M765.838129 488.353337c-11.21112 0-20.853449-10.292803-30.189672-20.317764l-2.601898-2.754951a365.949331 365.949331 0 0 1-25.559824-31.720201l-0.880054-1.224422v-1.607055h4.668112l3.826321-2.754951a370.885285 370.885285 0 0 0 24.871085 30.87841l2.601899 2.793214c9.259697 9.910171 17.983708 19.131605 26.018982 16.950602 1.415739-0.420895 5.930797-3.481952 3.520215-25.827667a19.475973 19.475973 0 0 1 0-2.86974c-0.420895-5.395112-9.259697-63.478664-14.004335-72.700097-3.443689-6.581272-16.414917-19.131605-26.516403-19.131605a10.331066 10.331066 0 0 0-9.565803 6.810851l-8.303116-4.362006a19.629026 19.629026 0 0 1 17.907182-11.823331c14.578283 0 30.380988 15.764442 34.781257 24.220611 5.203796 10.024961 14.807862 69.179882 14.999178 77.062103v1.721845c0.918317 8.724012 3.405426 31.873253-10.25454 35.814363a18.098498 18.098498 0 0 1-5.318586 0.841791zM711.695688 505.074359a225.332038 225.332038 0 0 0-48.517749-22.269187c-13.392123-3.826321-18.710709-2.334056-18.748973-2.295793l-3.175846-8.838801c1.224423-0.459159 8.1118-2.525372 24.488454 2.142739a233.405575 233.405575 0 0 1 50.660489 22.957926z" fill="#3E3D42" p-id="2366"></path><path d="M660.958673 481.580749l-30.113146-31.94978 3.367163-3.214109 2.831477-3.749795 0.612211 0.535685 30.113146 31.94978-6.810851 6.428219z" fill="#3E3D42" p-id="2367"></path></svg>